HIERARCHY
ROOT Hips
{
	OFFSET -14.64140 90.27770 -84.91600
	CHANNELS 6 Xposition Yposition Zposition Zrotation Xrotation Yrotation
	JOINT Spine
	{
		OFFSET 0.00000 13.20850 -1.60436
		CHANNELS 3 Zrotation Xrotation Yrotation
		JOINT Spine1
		{
			OFFSET 0.00000 8.61716 0.00000
			CHANNELS 3 Zrotation Xrotation Yrotation
			JOINT Spine2
			{
				OFFSET 0.00000 8.61717 0.00000
				CHANNELS 3 Zrotation Xrotation Yrotation
				JOINT Spine3
				{
					OFFSET 0.00000 8.61717 0.00000
					CHANNELS 3 Zrotation Xrotation Yrotation
					JOINT Neck
					{
						OFFSET 0.00000 11.07920 1.10792
						CHANNELS 3 Zrotation Xrotation Yrotation
						JOINT Neck1
						{
							OFFSET 0.00000 7.08032 0.00000
							CHANNELS 3 Zrotation Xrotation Yrotation
							JOINT Head
							{
								OFFSET 0.00000 7.08031 0.00000
								CHANNELS 3 Zrotation Xrotation Yrotation
								End site
								{
									OFFSET 0.00000 0.00000 0.00000
								}
							}
						}
					}
					JOINT RightShoulder
					{
						OFFSET -0.01000 7.91373 5.19711
						CHANNELS 3 Zrotation Xrotation Yrotation
						JOINT RightArm
						{
							OFFSET -18.41580 0.00000 0.00000
							CHANNELS 3 Zrotation Xrotation Yrotation
							JOINT RightForeArm
							{
								OFFSET -29.11090 0.00000 0.00000
								CHANNELS 3 Zrotation Xrotation Yrotation
								JOINT RightHand
								{
									OFFSET -24.65040 0.00000 0.00000
									CHANNELS 3 Zrotation Xrotation Yrotation
									JOINT RightHandThumb1
									{
										OFFSET -5.35114 -0.85590 3.97906
										CHANNELS 3 Zrotation Xrotation Yrotation
										JOINT RightHandThumb2
										{
											OFFSET -4.52789 0.00000 0.00000
											CHANNELS 3 Zrotation Xrotation Yrotation
											JOINT RightHandThumb3
											{
												OFFSET -2.46976 0.00000 0.00000
												CHANNELS 3 Zrotation Xrotation Yrotation
												End site
												{
													OFFSET 0.00000 0.00000 0.00000
												}
											}
										}
									}
									JOINT RightHandIndex1
									{
										OFFSET -14.26970 0.00000 2.88139
										CHANNELS 3 Zrotation Xrotation Yrotation
										JOINT RightHandIndex2
										{
											OFFSET -5.48836 0.00000 0.00000
											CHANNELS 3 Zrotation Xrotation Yrotation
											JOINT RightHandIndex3
											{
												OFFSET -3.01859 0.00000 0.00000
												CHANNELS 3 Zrotation Xrotation Yrotation
												End site
												{
													OFFSET 0.00000 0.00000 0.00000
												}
											}
										}
									}
									JOINT RightHandMiddle1
									{
										OFFSET -14.26970 0.00000 -0.09147
										CHANNELS 3 Zrotation Xrotation Yrotation
										JOINT RightHandMiddle2
										{
											OFFSET -6.17441 0.00000 0.00000
											CHANNELS 3 Zrotation Xrotation Yrotation
											JOINT RightHandMiddle3
											{
												OFFSET -3.56743 0.00000 0.00000
												CHANNELS 3 Zrotation Xrotation Yrotation
												End site
												{
													OFFSET 0.00000 0.00000 0.00000
												}
											}
										}
									}
									JOINT RightHandRing1
									{
										OFFSET -12.69180 0.00000 -3.06433
										CHANNELS 3 Zrotation Xrotation Yrotation
										JOINT RightHandRing2
										{
											OFFSET -5.62556 0.00000 0.00000
											CHANNELS 3 Zrotation Xrotation Yrotation
											JOINT RightHandRing3
											{
												OFFSET -3.56744 0.00000 0.00000
												CHANNELS 3 Zrotation Xrotation Yrotation
												End site
												{
													OFFSET 0.00000 0.00000 0.00000
												}
											}
										}
									}
									JOINT RightHandPinky1
									{
										OFFSET -11.11390 0.00000 -6.03719
										CHANNELS 3 Zrotation Xrotation Yrotation
										JOINT RightHandPinky2
										{
											OFFSET -4.52789 0.00000 0.00000
											CHANNELS 3 Zrotation Xrotation Yrotation
											JOINT RightHandPinky3
											{
												OFFSET -2.46976 0.00000 0.00000
												CHANNELS 3 Zrotation Xrotation Yrotation
												End site
												{
													OFFSET 0.00000 0.00000 0.00000
												}
											}
										}
									}
								}
							}
						}
					}
					JOINT LeftShoulder
					{
						OFFSET 0.01000 7.91373 5.19711
						CHANNELS 3 Zrotation Xrotation Yrotation
						JOINT LeftArm
						{
							OFFSET 18.41580 0.00000 0.00000
							CHANNELS 3 Zrotation Xrotation Yrotation
							JOINT LeftForeArm
							{
								OFFSET 29.11090 0.00000 0.00000
								CHANNELS 3 Zrotation Xrotation Yrotation
								JOINT LeftHand
								{
									OFFSET 24.65040 0.00000 0.00000
									CHANNELS 3 Zrotation Xrotation Yrotation
									JOINT LeftHandThumb1
									{
										OFFSET 5.35114 -0.85590 3.97906
										CHANNELS 3 Zrotation Xrotation Yrotation
										JOINT LeftHandThumb2
										{
											OFFSET 4.52789 0.00000 0.00000
											CHANNELS 3 Zrotation Xrotation Yrotation
											JOINT LeftHandThumb3
											{
												OFFSET 2.46977 0.00000 0.00000
												CHANNELS 3 Zrotation Xrotation Yrotation
												End site
												{
													OFFSET 0.00000 0.00000 0.00000
												}
											}
										}
									}
									JOINT LeftHandIndex1
									{
										OFFSET 14.26970 0.00000 2.88139
										CHANNELS 3 Zrotation Xrotation Yrotation
										JOINT LeftHandIndex2
										{
											OFFSET 5.48836 0.00000 0.00000
											CHANNELS 3 Zrotation Xrotation Yrotation
											JOINT LeftHandIndex3
											{
												OFFSET 3.01859 0.00000 0.00000
												CHANNELS 3 Zrotation Xrotation Yrotation
												End site
												{
													OFFSET 0.00000 0.00000 0.00000
												}
											}
										}
									}
									JOINT LeftHandMiddle1
									{
										OFFSET 14.26970 0.00000 -0.09147
										CHANNELS 3 Zrotation Xrotation Yrotation
										JOINT LeftHandMiddle2
										{
											OFFSET 6.17440 0.00000 0.00000
											CHANNELS 3 Zrotation Xrotation Yrotation
											JOINT LeftHandMiddle3
											{
												OFFSET 3.56744 0.00000 0.00000
												CHANNELS 3 Zrotation Xrotation Yrotation
												End site
												{
													OFFSET 0.00000 0.00000 0.00000
												}
											}
										}
									}
									JOINT LeftHandRing1
									{
										OFFSET 12.69180 0.00000 -3.06433
										CHANNELS 3 Zrotation Xrotation Yrotation
										JOINT LeftHandRing2
										{
											OFFSET 5.62556 0.00000 0.00000
											CHANNELS 3 Zrotation Xrotation Yrotation
											JOINT LeftHandRing3
											{
												OFFSET 3.56744 0.00000 0.00000
												CHANNELS 3 Zrotation Xrotation Yrotation
												End site
												{
													OFFSET 0.00000 0.00000 0.00000
												}
											}
										}
									}
									JOINT LeftHandPinky1
									{
										OFFSET 11.11390 0.00000 -6.03719
										CHANNELS 3 Zrotation Xrotation Yrotation
										JOINT LeftHandPinky2
										{
											OFFSET 4.52789 0.00000 0.00000
											CHANNELS 3 Zrotation Xrotation Yrotation
											JOINT LeftHandPinky3
											{
												OFFSET 2.46976 0.00000 0.00000
												CHANNELS 3 Zrotation Xrotation Yrotation
												End site
												{
													OFFSET 0.00000 0.00000 0.00000
												}
											}
										}
									}
								}
							}
						}
					}
					JOINT pCube4
					{
						OFFSET 0.00000 10.91090 1.10792
						CHANNELS 3 Zrotation Xrotation Yrotation
						End site
						{
							OFFSET 0.00000 0.00000 0.00000
						}
					}
				}
			}
		}
	}
	JOINT RightUpLeg
	{
		OFFSET -9.98441 0.00000 0.00000
		CHANNELS 3 Zrotation Xrotation Yrotation
		JOINT RightLeg
		{
			OFFSET 0.00000 -42.11790 0.00000
			CHANNELS 3 Zrotation Xrotation Yrotation
			JOINT RightFoot
			{
				OFFSET 0.00000 -45.00020 -0.00001
				CHANNELS 3 Zrotation Xrotation Yrotation
				JOINT RightForeFoot
				{
					OFFSET 0.00000 -3.74820 0.00000
					CHANNELS 3 Zrotation Xrotation Yrotation
					JOINT RightToeBase
					{
						OFFSET 0.00000 0.06325 14.43120
						CHANNELS 3 Zrotation Xrotation Yrotation
						End site
						{
							OFFSET 0.00000 0.00000 0.00000
						}
					}
				}
			}
		}
	}
	JOINT LeftUpLeg
	{
		OFFSET 9.98441 0.00000 0.00000
		CHANNELS 3 Zrotation Xrotation Yrotation
		JOINT LeftLeg
		{
			OFFSET 0.00000 -42.11800 0.00000
			CHANNELS 3 Zrotation Xrotation Yrotation
			JOINT LeftFoot
			{
				OFFSET 0.00000 -45.00070 0.00000
				CHANNELS 3 Zrotation Xrotation Yrotation
				JOINT LeftForeFoot
				{
					OFFSET 0.00000 -3.74824 0.00000
					CHANNELS 3 Zrotation Xrotation Yrotation
					JOINT LeftToeBase
					{
						OFFSET 0.00000 0.06325 14.43110
						CHANNELS 3 Zrotation Xrotation Yrotation
						End site
						{
							OFFSET 0.00000 0.00000 0.00000
						}
					}
				}
			}
		}
	}
}
MOTION
Frames: 4
Frame Time: 0.050000
-0.005556958940541985 -0.028987495177416008 -0.024905381456705428 0.04986703982065112 0.017216148309228615 0.009228107525520501 -4.226697146876361 5.824315827357574 -0.5599447515021874 -0.641372350359435 3.200739354160685 0.34399383361853786 -0.6949570665865492 -0.49557307606677603 -1.765338271934832 -1.2074889203097032 0.14252858587030776 -1.0202549428590502 -1.8582377804966708 9.708285114572796 3.9905846872554194 -0.35669932013063793 -1.1594995850460343 7.052394353222029 -1.4960586150920414 -15.566708184716981 0.7014622744134095 4.141485394846407 -0.27956417844914033 -10.157584881741393 65.6294069023616 7.385029683627854 22.32856639021688 46.69909738732361 18.03876725327748 103.07794151310401 26.567103270675887 0.06854261614977143 -11.013729199716133 4.544640172981509 -0.1269786653709037 -1.5617908736303694 0.021416138751766588 0.043273435860687874 -56.187462860801475 -0.002203061876057556 0.0472030307532088 -56.25019437095073 -38.74191189471517 0.006886509374378008 -0.022809658447715143 -0.03100701001161925 -0.02584425306570881 -0.03931687392510419 -0.03079901964598367 -0.006685827478627864 0.01056777079616314 -36.7095913873602 -0.01133055605455808 -0.044292369104404664 -0.00670873850221161 -0.016978293302611126 -0.030023117036644394 -0.03470562450114417 -0.02940128727919519 -0.030307397804165647 -19.755146935253443 -0.025105634663507966 -0.02964360126545272 0.012525643464478852 -0.02917644446128504 0.0067279811795846085 0.042719800881005306 -0.04226258960105348 -0.04952725790468816 24.098581433188855 0.02344392874369827 -0.030686339849870133 28.822236843223198 0.018556196550954304 0.038817734313462866 28.853707333329783 0.006767770954681418 0.008163233878695818 1.8428745120466594 0.8455099879733087 9.319109595492328 -64.99607015727629 12.840295778565089 -31.501313522331156 -85.12697078255955 12.055289576392456 -120.6293579515538 -31.932595518949167 -5.482351869545894 3.2267849352639604 -0.42534761223162704 0.0698541070580565 -8.096299609901637 -0.009735827794863166 -0.03711801891057541 44.57925145491582 0.004354188376602023 0.015972222488249883 44.59228041845729 12.510062257949443 0.03185788878734633 -0.009881474416322242 0.013512838093521783 0.03895673289609383 -0.02845005822780727 0.003992025115270949 0.00794247255168704 0.010795955883163427 11.141293589898918 -0.03087520591150493 0.04061338748821256 0.0017890368855366867 -0.013601610239676577 0.03650838703913415 -0.02809793453874586 0.04880164719345232 -0.002178813927985815 4.7393004189035395 0.01760239854114106 -0.030232709979994988 -0.010416065501145095 -0.021989369390935317 0.036319245231632144 0.04864807393236345 -0.009805810818607085 -0.02803806820930847 -5.567542830037965 -0.0230487772081561 0.0332842646611212 -6.731052486565682 -0.015760759821494816 0.021155415727447877 -6.767118402731881 -0.03278513996270602 -0.046416522968763516 -0.02958602808160048 0.024250268473143988 0.01718224637178168 8.06081869861616 3.502230156532484 -19.213203489000904 -0.005403109623471409 10.41150799038842 0.016890727477288953 -5.649131794597346 -15.638650133999233 3.214308748319308 -0.021562632240947264 0.004289525570043251 0.019438336351617937 0.034100989751234455 4.672445386700965 0.01890581016214486 12.439334389532478 -8.266232373573743 6.882634207142329 -0.009420810114624478 46.38472472933892 0.04642975722866801 -4.3387264342108915 -14.71954991942825 -3.795938173424733 -0.03555124819913216 -0.01539833936704776 -0.014747479442909439 0.0019396877748946882 -10.695609278115503 -0.036784060479353675 
-0.0035033851680281096 0.039981917847520615 -0.0027942273433010302 -0.03958193102828769 0.01646918713966259 0.008068357170947085 -3.967219984611648 5.5863806895462895 -0.5854326957613994 -0.5956732167839268 3.2606100238072555 0.34643609825015864 -0.6722304197304058 -0.5076606610285089 -1.6500650147221645 -1.175039458993748 0.12085118207270715 -0.9985006012900501 -1.8308684290720152 9.851893932147147 4.021451147908967 -0.27916527030829075 -1.2273314933015846 7.241717340868993 -1.4329252194100304 -15.776001691951983 0.6811561060730819 3.818101822618007 -0.17126267382166932 -10.229451478454411 66.24966961096031 8.327024318339603 21.58341325259227 47.81432527698719 18.75082473372613 102.76460592826136 26.13138884308913 0.019489954848252826 -11.135537688868991 4.52721594441079 -0.0802106980460261 -1.5924647199942026 0.009163458122558773 -0.015260714136025583 -56.24694290899245 1.2154657458667292e-05 0.03615919469953277 -56.24173576704756 -38.800625892402984 -0.025563787642063407 -0.008004331741929629 -0.031972002062948424 -0.015022150701903691 0.031355437180354113 -0.023369124132631897 0.0005301305591383783 -0.03377648019127288 -36.684376654436676 -0.031467507701497886 0.007255132959125609 -0.041843035783965414 -0.016821389924698046 0.029452776759511513 0.006289622486428296 -0.01663128527608169 0.021554966409964266 -19.794209360573884 0.029216131306779837 -0.018743544669262893 0.009724769170198756 -0.02884944707609158 -0.015402400511951464 -0.04894417883571431 -0.006407337642592409 0.015034187080281019 24.02549039595545 0.020514570061501095 -0.027558003460427444 28.858341451191432 0.02215881914248651 0.03356987451834934 28.842226116848572 0.009016487708460924 -0.012354208031498188 2.095704659713647 0.8936126087625114 9.372543814519439 -65.7800642150117 14.014921718982503 -30.894434549808178 -87.76766035219285 12.127256238908767 -121.55594592375485 -32.34339677864695 -6.198361659000135 3.8794793421665608 -0.4527166424824529 0.10133796039468707 -8.082560476727966 -0.027030784187909343 0.031140654622868868 44.58243486887392 -0.02796196947820862 -0.017717390075224215 44.56991993756679 12.438284613357217 0.04912439115366776 -0.017786430378335008 -0.03360560259954554 -0.035291164952367005 -0.04900463198884839 -0.04737055660049839 -0.0320494738651562 0.012210505869920186 11.118378476818107 -0.045027027614431246 -0.04516222124935471 -0.04941404363826506 -0.0021244184011454306 0.007286276218435298 -0.01633833940488892 -0.0066706145560084746 0.015135340574261198 4.821863229859513 0.004345769169151078 0.008341468599814158 0.022962124042637533 -0.01515946610826055 0.04686250811651209 0.04364853825521292 0.03541986573368406 -0.029986078516777984 -5.578746726644059 0.0020664690617749437 -0.006750137806843413 -6.7180327564401425 0.036047328684655246 -0.020544799104274983 -6.683752790900827 -0.006711870572985223 0.004880129920685008 -0.023278338833713576 0.02855806355913053 0.0013243129918542125 8.000623867657293 3.454943784298625 -19.18763765604901 -0.02654849196260008 10.370533702209675 0.002546348666107267 -5.651160393580919 -15.692975420286782 3.1955538932628995 0.005882797876848698 0.0015793754244863374 0.008547269083218114 0.00182400709044924 4.67908355569069 -0.0391782799188446 12.490529918313422 -8.228873697325811 6.900546038094492 0.010357877979740769 46.37170074233159 0.027185575225392253 -4.278309930384241 -14.72589049940448 -3.8495772748697017 0.03020686620124161 0.02408381090766727 -0.04580290342967763 0.04003325784152176 -10.762570196786527 -0.04585471423552801 
-0.005289015911114957 0.04787916436332839 -0.0023504392112970915 -0.005797803896663952 0.0002492961273609006 -0.006989032450737277 -3.7161078196370494 5.236402300442664 -0.6387702041533639 -0.6524832411047093 3.274192663065014 0.3260900244865446 -0.6593464936727459 -0.6382432271667127 -1.649285426676795 -1.1725550268480025 0.1124371205711724 -0.9195124334565347 -1.7724850875987563 9.983714927301085 3.912990819380781 -0.31587110122019235 -1.297206893144385 7.269013337124809 -1.3804267387359341 -16.00275887075483 0.6976595351122784 3.2257142018779583 0.01799081159371383 -10.335851498366154 67.40828021589653 9.088053513544988 21.16715573213782 48.22909825568719 19.360307425141475 102.32658583054904 25.46303282095326 0.018648590267942907 -11.045719017367862 4.503842121774388 -0.16807224567722107 -1.5571432635103446 0.007526969319143351 0.03342081368010028 -56.229274427420194 0.046746730932655405 0.018396816668694013 -56.25442930652856 -38.799597754286545 -0.0011922666145481335 -0.031936781163143926 -0.032824279020281295 0.019840386560712256 0.023656476108080464 -0.030655286147179744 -0.01819733499723669 -0.003716475244384264 -36.69056172096083 -0.04390539011023753 -0.001485430332873971 0.0344336365600229 0.013606214330622278 0.03468504678729398 -0.03033994943831954 -0.00392257405510944 0.021918339004939853 -19.75191925508467 -0.012212943030667972 0.0038701101628210617 0.0421954473007577 0.045106964671568946 -0.005889596867812069 0.010990283494277716 0.004103197022512285 -0.018445146431696008 24.01897189071912 0.02380104078380021 0.016614994243364642 28.83413040514524 -0.046035584895137045 0.030336398821245093 28.8557136100114 0.031321953173587554 -0.008540761467045764 2.6394818376877702 1.0403197654939393 9.441452748296928 -66.85240987946838 15.255091797927154 -30.419704391838835 -89.51341606206533 12.307272972344787 -122.28659166433381 -32.234595667369504 -6.701462159011505 4.5800170365878605 -0.4497239966407485 0.04881622123351069 -8.07562779134403 -0.010292900986082211 -0.02611634400548376 44.55030400543956 0.03578213920324558 0.034645965434473236 44.57179629090165 12.459177274123856 0.004929808737243624 -0.04704258938837385 -0.032428980315239095 0.0473059026791172 -0.011670321254087724 0.007305778608753566 -0.02082583801437713 -0.015907085217961053 11.141473549998434 -0.00742023102733239 0.003577912860397592 0.014152910470823416 -0.006170090676743786 -0.01909205026931315 -0.014910137824244253 -0.01270869983277779 -0.005259109516441816 4.734236518179085 0.041593049595478236 0.003626109694982847 0.01792254601376407 0.03371997475240642 0.037524685368991596 0.02004923819301328 0.016288824118535095 -0.0018424902321596806 -5.561155415007298 0.025370670809515303 0.0008910414437907312 -6.682735250701842 0.011090138893958303 0.02181039343058572 -6.731418522129534 -0.04920100162600637 0.023315197259182692 -0.01572446304117005 -0.0145224165199831 -0.017161064474991942 8.059557708565396 3.4659775895700284 -19.25286520256102 0.01783252419134227 10.416582680585517 0.01105048691933118 -5.6225220234792035 -15.683998118526649 3.1949390469864767 -0.037093120300593654 0.03213811174212676 0.008666869950016759 -0.03432760881994219 4.699925429419065 0.03241858972584454 12.442222889214936 -8.23122545955592 6.907358844640824 -0.04689934841386407 46.41809827502361 0.01690381359335006 -4.330130895834668 -14.746403738353926 -3.805485698810368 0.01609578244088223 0.0336570797249869 -0.049549456944298624 0.011348253527895499 -10.769112949957687 -0.04877279055708255 
-0.010214025207792366 -0.01765189561617031 -0.008318735502245251 -0.023070967232341744 -0.02502442351444504 0.02972359243609329 -3.3578023378000714 4.815263235982275 -0.7155215211461666 -0.656911193662898 3.284627161227855 0.3737285379512543 -0.6964175175943783 -0.6888292020506928 -1.5477829453781102 -1.1947009554956716 -0.01600106878336462 -0.8862924161395173 -1.7334715938355687 10.201700942762901 3.8273642873489906 -0.2764560846524396 -1.2601225027601264 7.124826627247433 -1.2420041253950234 -16.116451718262958 0.6111384630785076 2.4745177137625354 0.2994849980513328 -10.599378440098317 68.90247991556892 9.340802107524592 20.705275886242575 48.54766350800242 20.08540072377065 101.85112342706427 24.797805404878407 -0.07774282450997243 -10.976647934723657 4.565126002646178 -0.12222706462199592 -1.5903279420524798 0.048275687368803714 0.00539061632583258 -56.19078844132256 -0.01280547932605114 -0.027664008544983288 -56.19448523761226 -38.72871172901069 0.03589202028272826 -0.005707808229911053 0.033498267628487934 0.011121970168072941 0.01086558950158162 0.006022162446407162 -0.020151324263451315 0.019632821033809682 -36.647566948687256 -0.02183411407360475 0.0028474824265238316 0.001992867173773397 -0.03623029939918345 0.02966354678126531 -0.007465016580290474 -0.03856496748331713 -0.040828573789499154 -19.802207446365443 -0.03791660642672281 -0.03790925619718889 0.0050319787656824 -0.03891305223357808 0.0003327078420636275 -0.007934024562164363 0.0015424342984959897 0.018538562259621444 24.05555047848266 0.013368637731019893 0.011465368029590887 28.85331184948253 0.024058101323785813 -0.0416772004463921 28.903918980848847 0.044098126793485085 -0.010774213571215985 3.2464214178975834 1.2278095694319167 9.6836688662566 -67.9605813374691 16.151935443836066 -29.75609144382255 -90.50419198716125 13.029566143001773 -123.06930782964946 -32.33730228013058 -7.300510607801994 5.24313340359424 -0.4395938520736545 0.055411399675979425 -8.10683949241475 0.04890494055086981 0.03930262117642981 44.61341753102527 0.01143363063893847 -0.02785065702225079 44.56595319260029 12.455273322303805 -0.039238246815676704 0.017121175553644362 0.035530307592293385 -0.004635633543902462 -0.001151197064382891 -0.04917203691356416 0.023551348570832815 0.0185127165164953 11.103757348926603 0.017394177987917134 0.0304202306534681 -0.00021898815088137295 -0.0038847242592843193 -0.03877271175452053 -0.03313676763500955 -0.004695417900741528 0.03861581088128558 4.817311992974078 0.030732128510745534 -0.037609866097300416 0.02913442702944265 0.02856441988565474 -0.014783313542290377 -0.022735086041970012 0.023777998110600534 -7.505029648902529e-05 -5.594984646007481 0.0036556425489566147 -0.01983183007232686 -6.694945602059439 -0.0378665962800632 0.03868867370895937 -6.7136260523833835 -0.03903331211115424 0.0010554118314623534 0.020632964298499326 -0.021978274789765277 -0.012738284591725102 8.059675690729026 3.493517270006852 -19.196444560087727 -0.0020639071194183877 10.382318112903244 0.015117637370194139 -5.63854113249573 -15.648562723975347 3.1924785598619803 0.029480444726088125 0.006111591713104551 0.015999717289690213 0.0007108054378892819 4.6905851679382975 -0.0008139658048703532 12.462239240881614 -8.20678074910482 6.840868320985328 0.0016636781704283832 46.339717705859044 -0.047484764822582515 -4.330527887978472 -14.716202093380247 -3.789698065940756 0.022789535568123152 0.019509510858415072 -0.010000017679229645 0.025331943000782068 -10.708476107615663 -0.04793211593320378 
